<mxfile host="app.diagrams.net" modified="2021-06-22T06:41:00.456Z" agent="5.0 (Windows)" etag="qEWhZQ2Rv3gJOvVfSytk" version="14.6.6" type="github">
  <diagram id="9IovndKO5Lwux1j9DJRa" name="Page-1">
    <mxGraphModel dx="1422" dy="752" grid="1" gridSize="10" guides="1" tooltips="1" connect="1" arrows="1" fold="1" page="1" pageScale="1" pageWidth="1920" pageHeight="1200" math="0" shadow="0">
      <root>
        <mxCell id="0" />
        <mxCell id="1" parent="0" />
        <mxCell id="GJDk6ChRwVHrgXMmXjr3-1" value="" style="endArrow=none;dashed=1;html=1;fontSize=11;strokeWidth=3;" edge="1" parent="1">
          <mxGeometry width="50" height="50" relative="1" as="geometry">
            <mxPoint x="10" y="180" as="sourcePoint" />
            <mxPoint x="1260" y="180" as="targetPoint" />
          </mxGeometry>
        </mxCell>
        <mxCell id="GJDk6ChRwVHrgXMmXjr3-4" value="On-Premise" style="rounded=0;whiteSpace=wrap;html=1;dashed=1;strokeWidth=4;labelPosition=center;verticalLabelPosition=top;align=center;verticalAlign=bottom;fontSize=17;" vertex="1" parent="1">
          <mxGeometry x="110" y="200" width="470" height="430" as="geometry" />
        </mxCell>
        <mxCell id="GJDk6ChRwVHrgXMmXjr3-5" value="Cloud" style="rounded=0;whiteSpace=wrap;html=1;strokeWidth=4;labelPosition=center;verticalLabelPosition=top;align=center;verticalAlign=bottom;fontSize=17;labelBorderColor=none;labelBackgroundColor=none;fillColor=#99CCFF;" vertex="1" parent="1">
          <mxGeometry x="690" y="200" width="470" height="430" as="geometry" />
        </mxCell>
        <mxCell id="GJDk6ChRwVHrgXMmXjr3-6" value="&lt;div&gt;VPC A&lt;/div&gt;" style="rounded=0;whiteSpace=wrap;html=1;labelBackgroundColor=none;fontSize=17;strokeWidth=4;labelPosition=center;verticalLabelPosition=top;align=center;verticalAlign=bottom;fillColor=#dae8fc;strokeColor=#6c8ebf;" vertex="1" parent="1">
          <mxGeometry x="755" y="240" width="340" height="130" as="geometry" />
        </mxCell>
        <mxCell id="GJDk6ChRwVHrgXMmXjr3-7" value="&lt;div&gt;VPC B&lt;/div&gt;" style="rounded=0;whiteSpace=wrap;html=1;labelBackgroundColor=none;fontSize=17;strokeWidth=4;labelPosition=center;verticalLabelPosition=top;align=center;verticalAlign=bottom;fillColor=#dae8fc;strokeColor=#6c8ebf;" vertex="1" parent="1">
          <mxGeometry x="755" y="440" width="340" height="130" as="geometry" />
        </mxCell>
        <mxCell id="GJDk6ChRwVHrgXMmXjr3-9" value="Cluster B1" style="rounded=1;whiteSpace=wrap;html=1;labelBackgroundColor=none;fontSize=17;strokeWidth=4;fillColor=#ffe6cc;strokeColor=#d79b00;" vertex="1" parent="1">
          <mxGeometry x="810" y="465" width="101" height="80" as="geometry" />
        </mxCell>
        <mxCell id="GJDk6ChRwVHrgXMmXjr3-12" value="PowerDNS" style="aspect=fixed;html=1;points=[];align=center;image;fontSize=12;image=img/lib/azure2/networking/Route_Filters.svg;labelBackgroundColor=none;strokeWidth=4;" vertex="1" parent="1">
          <mxGeometry x="730" y="486.5" width="59.7" height="37" as="geometry" />
        </mxCell>
        <mxCell id="GJDk6ChRwVHrgXMmXjr3-13" value="Cluster B2" style="rounded=1;whiteSpace=wrap;html=1;labelBackgroundColor=none;fontSize=17;strokeWidth=4;fillColor=#ffe6cc;strokeColor=#d79b00;" vertex="1" parent="1">
          <mxGeometry x="940" y="465" width="101" height="80" as="geometry" />
        </mxCell>
        <mxCell id="GJDk6ChRwVHrgXMmXjr3-14" value="PowerDNS" style="aspect=fixed;html=1;points=[];align=center;image;fontSize=12;image=img/lib/azure2/networking/Route_Filters.svg;labelBackgroundColor=none;strokeWidth=4;" vertex="1" parent="1">
          <mxGeometry x="460" y="396.5" width="59.7" height="37" as="geometry" />
        </mxCell>
        <mxCell id="GJDk6ChRwVHrgXMmXjr3-15" value="Cluster A1" style="rounded=1;whiteSpace=wrap;html=1;labelBackgroundColor=none;fontSize=17;strokeWidth=4;fillColor=#ffe6cc;strokeColor=#d79b00;" vertex="1" parent="1">
          <mxGeometry x="810" y="265" width="101" height="80" as="geometry" />
        </mxCell>
        <mxCell id="GJDk6ChRwVHrgXMmXjr3-16" value="Cluster A1" style="rounded=1;whiteSpace=wrap;html=1;labelBackgroundColor=none;fontSize=17;strokeWidth=4;fillColor=#ffe6cc;strokeColor=#d79b00;" vertex="1" parent="1">
          <mxGeometry x="940" y="265" width="101" height="80" as="geometry" />
        </mxCell>
        <mxCell id="GJDk6ChRwVHrgXMmXjr3-17" value="PowerDNS" style="aspect=fixed;html=1;points=[];align=center;image;fontSize=12;image=img/lib/azure2/networking/Route_Filters.svg;labelBackgroundColor=none;strokeWidth=4;" vertex="1" parent="1">
          <mxGeometry x="730" y="286.5" width="59.7" height="37" as="geometry" />
        </mxCell>
        <mxCell id="GJDk6ChRwVHrgXMmXjr3-18" value="" style="verticalLabelPosition=bottom;html=1;verticalAlign=top;align=center;strokeColor=none;fillColor=#00BEF2;shape=mxgraph.azure.user;labelBackgroundColor=none;fontSize=17;" vertex="1" parent="1">
          <mxGeometry x="160" y="383.5" width="47.5" height="50" as="geometry" />
        </mxCell>
        <mxCell id="GJDk6ChRwVHrgXMmXjr3-21" value="" style="edgeStyle=orthogonalEdgeStyle;rounded=0;orthogonalLoop=1;jettySize=auto;html=1;fontSize=17;" edge="1" parent="1" source="GJDk6ChRwVHrgXMmXjr3-19" target="GJDk6ChRwVHrgXMmXjr3-20">
          <mxGeometry relative="1" as="geometry" />
        </mxCell>
        <mxCell id="GJDk6ChRwVHrgXMmXjr3-19" value="" style="verticalLabelPosition=bottom;html=1;verticalAlign=top;align=center;strokeColor=none;fillColor=#00BEF2;shape=mxgraph.azure.user;labelBackgroundColor=none;fontSize=17;" vertex="1" parent="1">
          <mxGeometry x="320.25" y="70" width="47.5" height="50" as="geometry" />
        </mxCell>
        <mxCell id="GJDk6ChRwVHrgXMmXjr3-20" value="F5" style="strokeColor=#666666;html=1;labelPosition=center;align=center;spacingLeft=15;shadow=0;dashed=0;outlineConnect=0;shape=mxgraph.rack.f5.arx_500;labelBackgroundColor=none;fontSize=17;verticalLabelPosition=top;verticalAlign=bottom;" vertex="1" parent="1">
          <mxGeometry x="260" y="231" width="168" height="20" as="geometry" />
        </mxCell>
        <mxCell id="GJDk6ChRwVHrgXMmXjr3-22" value="" style="shape=image;html=1;verticalAlign=top;verticalLabelPosition=bottom;labelBackgroundColor=#ffffff;imageAspect=0;aspect=fixed;image=https://cdn4.iconfinder.com/data/icons/logos-brands-5/24/nginx-128.png;fontSize=17;strokeWidth=4;" vertex="1" parent="1">
          <mxGeometry x="400" y="300" width="41.5" height="41.5" as="geometry" />
        </mxCell>
        <mxCell id="GJDk6ChRwVHrgXMmXjr3-23" value="Internet" style="text;html=1;strokeColor=none;fillColor=none;align=center;verticalAlign=middle;whiteSpace=wrap;rounded=0;labelBackgroundColor=none;fontSize=17;" vertex="1" parent="1">
          <mxGeometry x="20" y="140" width="40" height="20" as="geometry" />
        </mxCell>
        <mxCell id="GJDk6ChRwVHrgXMmXjr3-24" value="Intranet" style="text;html=1;strokeColor=none;fillColor=none;align=center;verticalAlign=middle;whiteSpace=wrap;rounded=0;labelBackgroundColor=none;fontSize=17;" vertex="1" parent="1">
          <mxGeometry x="20" y="190" width="40" height="20" as="geometry" />
        </mxCell>
      </root>
    </mxGraphModel>
  </diagram>
</mxfile>
